<svg width="80" height="80" viewBox="0 0 80 80" fill="none" xmlns="http://www.w3.org/2000/svg">
<rect width="80" height="80" rx="20" fill="#1E3A8A"/>
<g clip-path="url(#clip0_359_5)">
<path d="M26.3916 36.4206C26.5345 36.5699 26.7062 36.6887 26.8963 36.7698C27.0864 36.851 27.2909 36.8928 27.4976 36.8928C27.7042 36.8928 27.9088 36.851 28.0988 36.7698C28.2889 36.6887 28.4606 36.5699 28.6035 36.4206L38.0518 26.6716C40.8008 23.8396 40.6396 19.1423 37.5723 16.5271C34.8975 14.2478 30.918 14.6579 28.4629 17.1911L27.5 18.1814L26.5381 17.1911C24.0869 14.6579 20.1025 14.2478 17.4277 16.5271C14.3604 19.1423 14.2051 23.8366 16.9395 26.6716L26.3916 36.4206ZM40.4463 46.2341H35.7588L35.0674 44.8435C34.8762 44.3333 34.5338 43.8936 34.086 43.5834C33.6382 43.2731 33.1063 43.1069 32.5615 43.1071H25.5586C25.0138 43.1069 24.4819 43.2731 24.0341 43.5834C23.5863 43.8936 23.2439 44.3333 23.0527 44.8435L22.3691 46.2341H17.6816C17.3294 46.234 16.9807 46.3032 16.6553 46.438C16.3299 46.5727 16.0342 46.7702 15.7851 47.0192C15.5361 47.2683 15.3386 47.5639 15.2039 47.8894C15.0691 48.2148 14.9999 48.5635 15 48.9157L15 62.319C14.9999 62.671 15.0691 63.0194 15.2036 63.3446C15.3382 63.6698 15.5354 63.9652 15.7842 64.2142C16.0329 64.4631 16.3282 64.6606 16.6533 64.7954C16.9784 64.9301 17.3268 64.9996 17.6787 64.9997H40.4463C41.1569 64.9992 41.8382 64.7165 42.3405 64.2139C42.8428 63.7112 43.125 63.0297 43.125 62.319V48.9157C43.1253 48.2049 42.8432 47.5232 42.3409 47.0203C41.8386 46.5174 41.1571 46.2346 40.4463 46.2341ZM29.0625 60.7028C28.0581 60.7028 27.0763 60.405 26.2412 59.847C25.4062 59.289 24.7553 58.4959 24.3709 57.568C23.9866 56.6401 23.886 55.6191 24.082 54.634C24.2779 53.649 24.7615 52.7441 25.4717 52.0339C26.1819 51.3237 27.0867 50.8401 28.0718 50.6442C29.0569 50.4482 30.0779 50.5488 31.0058 50.9331C31.9337 51.3175 32.7268 51.9684 33.2848 52.8035C33.8428 53.6386 34.1406 54.6204 34.1406 55.6247C34.1406 56.9715 33.6056 58.2632 32.6533 59.2155C31.7009 60.1678 30.4093 60.7028 29.0625 60.7028ZM63.7695 49.3845H57.8535L60.0371 44.4284C60.2422 43.779 59.6533 43.1384 58.8477 43.1384H51.4658C50.8506 43.1384 50.3271 43.5192 50.2451 44.0271L48.6045 54.4694C48.5068 55.0847 49.0811 55.6306 49.8252 55.6306H55.9102L53.5469 63.736C53.3623 64.3855 53.957 64.9958 54.7412 64.9958C54.9469 65.0012 55.1509 64.9575 55.3364 64.8684C55.5219 64.7792 55.6834 64.6472 55.8076 64.4831L64.8311 50.9177C65.3076 50.2429 64.7178 49.3845 63.7695 49.3845ZM61.6875 15.0319L47.1787 17.2624C45.749 17.4821 44.6875 18.8005 44.6875 20.3542V30.781C44.1732 30.6753 43.65 30.6197 43.125 30.6149C39.6729 30.6149 36.875 32.7126 36.875 35.3024C36.875 37.8923 39.6729 39.9899 43.125 39.9899C46.5625 39.9899 49.3486 37.9079 49.375 35.3357V24.7321L60.3125 23.0505V27.6579C59.7982 27.5523 59.275 27.4967 58.75 27.4919C55.2979 27.4919 52.5 29.5896 52.5 32.1794C52.5 34.7692 55.2979 36.8669 58.75 36.8669C62.1875 36.8669 64.9736 34.7849 65 32.2126V18.1247C65 16.2224 63.4375 14.7634 61.6875 15.0319Z" fill="#FACC15"/>
</g>
<defs>
<clipPath id="clip0_359_5">
<rect width="50" height="50" fill="white" transform="translate(15 15)"/>
</clipPath>
</defs>
</svg>
